# xmcd
#
# Track frame offsets: 
#        150
#        12294
#        27435
#        41646
#        58692
#        78325
#        94920
#        111740
#        126732
#        145066
#
# Disc length: 2199 seconds
#
# Revision: 0
# Processed by: cddbd v1.5.2PL0 Copyright (c) Steve Scherf et al.
# Submitted via: ExactAudioCopy v1.0b3
#
DISCID=9008950a
DTITLE=Bonnie Whitmore - There I Go Again
DYEAR=2013
DGENRE=Folk/Rock
TTITLE0=There I Go Again
TTITLE1=Heartbreaker
TTITLE2=Reckless and Young
TTITLE3=Colored Kissses
TTITLE4=Too Much Too Soon
TTITLE5=Cryin' Out For Me
TTITLE6=You're Gonna Love Me
TTITLE7=The Gavel
TTITLE8=Borderline
TTITLE9=Be the Death of Me
EXTD=
EXTT0=
EXTT1=
EXTT2=
EXTT3=
EXTT4=
EXTT5=
EXTT6=
EXTT7=
EXTT8=
EXTT9=
PLAYORDER=
